<svg width="489.68359375" height="104.78082475601488" viewBox="0 0 369.91304347826093 79.15273102543017" class="looka-1j8o68f"><defs id="SvgjsDefs1879"></defs><g id="SvgjsG1880" featurekey="JKiIdh-0" transform="matrix(0.16841006601155356,0,0,0.16841006601155356,-5.0699952391205025,-3.5366113862426247)" fill="#ff2e63"><title xmlns="http://www.w3.org/2000/svg">Health_Icons_line</title><path xmlns="http://www.w3.org/2000/svg" d="M121.56,315.48a4,4,0,0,0,5.57-1l11.45-16.4a4,4,0,0,0-6.56-4.58l-11.45,16.4A4,4,0,0,0,121.56,315.48Z"></path><path xmlns="http://www.w3.org/2000/svg" d="M472.77,428.81l-38.28-52.76a3.73,3.73,0,0,0-1.58-2.44L312,206.7v-158l30-20.36a4,4,0,0,0,1.5-4.49A4.12,4.12,0,0,0,339.62,21h-177a4,4,0,0,0-3.83,2.84,4.1,4.1,0,0,0,1.8,4.49L192,49.14V206.75l-40.19,58a4.17,4.17,0,0,0-.74,1.64l-7.56,10.75a4,4,0,0,0,1,5.57,3.94,3.94,0,0,0,2.27.72A4,4,0,0,0,150,281.7l8.66-12.41a4,4,0,0,0,.66-1.68l39.75-57.34A4.23,4.23,0,0,0,200,208V47a4.19,4.19,0,0,0-2-3.33L175.83,29H326.51L305.57,43.23A3.83,3.83,0,0,0,304,46.54V208a3.84,3.84,0,0,0,.57,2.35L422.39,373H86.32l17.57-25.34a3.91,3.91,0,0,0,.33-.37l11.45-16.4a4,4,0,1,0-6.56-4.58L97.82,342.48a4,4,0,0,0-.42.49L37.89,428.81c-8.76,11.57-10.2,25.42-3.95,38C41.22,481.51,57.65,491,75.8,491h366c16.63,0,29.85-7.12,36.29-19.53C484.64,458.78,482.67,442.84,472.77,428.81Zm-1.81,39c-5,9.67-15.65,15.21-29.19,15.21H75.8c-15.13,0-28.75-7.74-34.7-19.73-4.86-9.8-3.69-20.62,3.2-29.7l.1-.14L80.77,381H428.2l38.07,52.46C474.38,445,476.14,457.8,471,467.79Z"></path><path xmlns="http://www.w3.org/2000/svg" d="M176.46,402A25.5,25.5,0,1,0,202,427.5,25.53,25.53,0,0,0,176.46,402Zm0,43A17.5,17.5,0,1,1,194,427.5,17.52,17.52,0,0,1,176.46,445Z"></path><path xmlns="http://www.w3.org/2000/svg" d="M309,400.87A19.87,19.87,0,1,0,328.83,381,19.9,19.9,0,0,0,309,400.87ZM328.83,389A11.87,11.87,0,1,1,317,400.87,11.89,11.89,0,0,1,328.83,389Z"></path><path xmlns="http://www.w3.org/2000/svg" d="M257.61,370.74a14.33,14.33,0,1,0-.28,0ZM251,356.49a6.33,6.33,0,0,1,1.78-4.54,6.2,6.2,0,0,1,4.47-2h.13a6.37,6.37,0,0,1,6.37,6.25h0a6.37,6.37,0,0,1-6.25,6.49,6.24,6.24,0,0,1-4.54-1.78A6.33,6.33,0,0,1,251,356.49Z"></path><path xmlns="http://www.w3.org/2000/svg" d="M334.61,343.74a14.33,14.33,0,1,0-.28,0ZM328,329.49a6.33,6.33,0,0,1,1.78-4.54,6.2,6.2,0,0,1,4.47-2h.13a6.37,6.37,0,0,1,6.37,6.25h0a6.37,6.37,0,1,1-12.74.24Z"></path></g><g id="SvgjsG1881" featurekey="A7DQL5-0" transform="matrix(3.0748347734544232,0,0,3.0748347734544232,96,2.962701264327073)" fill="#067f7b"><path d="M7 20 c2.2134 0 4.1 -0.78 5.66 -2.34 c0.77334 -0.76 1.3567 -1.58 1.75 -2.46 s0.59 -1.88 0.59 -3 c0 -2.2266 -0.78 -4.1066 -2.34 -5.64 c-1.56 -1.52 -3.4866 -2.2866 -5.78 -2.3 c-1.4133 0.01334 -2.74 0.36668 -3.98 1.06 c-1.2133 0.70666 -2.18 1.6867 -2.9 2.94 l0.58 0.32 c0.65334 -1.16 1.54 -2.06 2.66 -2.7 c1.1067 -0.64 2.32 -0.96666 3.64 -0.98 c2.1334 0.01334 3.9066 0.72668 5.32 2.14 c1.4133 1.3867 2.1266 3.1066 2.14 5.16 c0 1.0267 -0.18 1.9433 -0.54 2.75 s-0.88666 1.5633 -1.58 2.27 c-1.4267 1.4267 -3.1666 2.14 -5.22 2.14 c-1.28 0 -2.44 -0.27334 -3.48 -0.82 l-0.3 0.58 c1.1333 0.58666 2.3934 0.88 3.78 0.88 z M18.98 4.24 l-1.38 0 l0 0.64 l0.9 0 l0.44 0 c1.64 0 2.8734 0.47334 3.7 1.42 s1.24 2.18 1.24 3.7 l0 0.22 c0 1.4933 -0.41334 2.7134 -1.24 3.66 s-2.06 1.42 -3.7 1.42 l-0.64 0 l0 0 l-0.44 0 l-0.22 0 l-0.04 0 l0 4.7 l0.7 0 l0 -4.04 l0.68 0 c1.84 0 3.2366 -0.54334 4.19 -1.63 s1.43 -2.45 1.43 -4.09 l0 -0.26 c0 -1.64 -0.48334 -3.0066 -1.45 -4.1 s-2.3566 -1.64 -4.17 -1.64 z M27.76 14.16 l0 -9.36 l4.8 0 l0 -0.56 l-5.36 0 l0 9.92 l0.56 0 z M32.760000000000005 20 l0 -0.54 l-5 0 l0 -4.14 l0.8 0 l0 -0.54 l-1.36 0 l0 5.22 l5.56 0 z M42.34 4.58 l-0.000019531 11.56 c0 0.36 0.0066602 0.76 0.02 1.2 s0.02 0.66666 0.02 0.68 c-0.02666 -0.04 -0.12332 -0.25666 -0.28998 -0.65 s-0.33 -0.74334 -0.49 -1.05 l-0.28 -0.54 l-0.72 0 l2.2 4.22 l0.18 0 l0 -15.42 l-0.64 0 z M36.72 7.9399999999999995 l0.27998 0.54 l0.72 0 l-2.22 -4.24 l-0.14 0 l0 15.46 l0.62 0 l0 -11.6 c0 -0.33334 -0.0066602 -0.72334 -0.02 -1.17 s-0.02 -0.67666 -0.02 -0.69 c0.01334 0.04 0.10668 0.26 0.28002 0.66 s0.34 0.74666 0.5 1.04 z M51.239999999999995 16.06 l0 -11.82 l-0.66 0 l0 11.82 l0.66 0 z M56.62 20 l0 -0.68 l-5.38 0 l0 -1.96 l-0.66 0 l0 2.64 l6.04 0 z M64.56 6.140000000000001 c0 0.08 0.23666 0.84334 0.71 2.29 s0.99 3.03 1.55 4.75 s1.3133 3.9934 2.26 6.82 l0.86 0 l-5.3 -15.76 l-0.16 0 l-5.26 15.76 l0.82 0 z M64.2 15.52 l-0.72 0 l1.2 4.48 l0.72 0 z M72.53999999999999 10.94 l0.000039062 9.06 l3.84 0 c1.1467 0 2.0534 -0.40666 2.72 -1.22 s1 -1.8667 1 -3.16 c0 -0.34666 -0.04334 -0.74332 -0.13 -1.19 s-0.23332 -0.88 -0.43998 -1.3 s-0.48666 -0.8 -0.84 -1.14 s-0.81 -0.57666 -1.37 -0.71 c0.56 -0.34666 0.96666 -0.81 1.22 -1.39 s0.38 -1.19 0.38 -1.83 c0 -1.2267 -0.34 -2.17 -1.02 -2.83 s-1.6067 -0.99 -2.78 -0.99 l-2.58 0 l0 6.22 l0.7 0 l-0.02 -5.4 l1.96 0 c1.1067 0 1.8867 0.29 2.34 0.87 s0.68 1.29 0.68 2.13 c0 0.90666 -0.20666 1.61 -0.62 2.11 s-0.98 0.75 -1.7 0.75 l-2.62 0 l0.44 0.88 l2.68 0 c0.54666 0 1.0133 0.12334 1.4 0.37 s0.70332 0.55666 0.94998 0.93 s0.43 0.79334 0.55 1.26 s0.18 0.92 0.18 1.36 c0 0.42666 -0.06 0.84666 -0.18 1.26 s-0.3 0.78334 -0.54 1.11 s-0.55334 0.59 -0.94 0.79 s-0.84666 0.3 -1.38 0.3 l-3.2 0 l0.02 -8.24 l-0.7 0 z M84.77999999999999 11.02 l1.78 1.66 c0.56 0.52 1 1.0767 1.32 1.67 s0.48 1.19 0.48 1.79 l0 0.26 c0.01334 0.42666 -0.04 0.80666 -0.16 1.14 l0.74 0 c0.10666 -0.36 0.15332 -0.73334 0.13998 -1.12 l0 -0.28 c0 -0.72 -0.18334 -1.4067 -0.55 -2.06 s-0.87666 -1.2933 -1.53 -1.92 l-1.72 -1.62 c-0.54666 -0.52 -0.99666 -1.0067 -1.35 -1.46 s-0.53 -1.02 -0.53 -1.7 l0 -0.12 c0 -0.70666 0.19666 -1.2767 0.59 -1.71 s0.94334 -0.65 1.65 -0.65 c0.50666 0 0.92 0.07666 1.24 0.23 s0.64666 0.38334 0.98 0.69 l0.46 -0.52 c-0.37334 -0.34666 -0.75668 -0.60666 -1.15 -0.78 s-0.90334 -0.26 -1.53 -0.26 c-0.81334 0 -1.5033 0.26334 -2.07 0.79 s-0.85 1.2567 -0.85 2.19 l0 0.16 c0 0.76 0.19 1.41 0.57 1.95 s0.87666 1.0967 1.49 1.67 z M88.65999999999998 18.3 l-0.82002 0 c-0.46666 0.68 -1.2133 1.0267 -2.24 1.04 c-0.34666 0 -0.66 -0.04 -0.94 -0.12 l0 0.7 c0.28 0.05334 0.59334 0.08 0.94 0.08 c0.72 0 1.34 -0.14666 1.86 -0.44 s0.92 -0.71334 1.2 -1.26 z"></path></g></svg>